<svg id="Layer_1" enable-background="new 0 0 468.001 468.001" height="512" viewBox="0 0 468.001 468.001" width="512" xmlns="http://www.w3.org/2000/svg"><g><path d="m333.258 466.001h-230.61c49.04-44.73 78.8-112.98 78.8-112.98 144.169-112.16 102.412-79.68 134.48-104.62 0 0 44.02 53.73 17.33 217.6z" fill="#9290fd"/><path d="m333.258 466.001h-32.72c7.41-99.16-10.16-169.51-10.16-169.51 2.42-12.86 5.03-24.23 7.78-34.27l17.77-13.82s44.02 53.73 17.33 217.6z" fill="#8989fd"/><path d="m252.568 297.691-1.24 9.81s-4.61 40.88-24.54 90.51l-.01.03c-8.77 21.87-20.52 45.44-36.15 67.96h-87.98c19.09-17.41 35.26-38.39 47.88-57.51.384 0 20.603-31.807 30.92-55.47z" fill="#a9a7fd"/><path d="m226.788 398.011-.01.03c-8.77 21.87-20.52 45.44-36.15 67.96h-87.98c19.09-17.41 35.26-38.39 47.88-57.51.102 0 41.74 6.658 76.26-10.48z" fill="#b2b0fd"/><path d="m90.528 142.439s-16.529-62.829 45.779-103.828 11.725 9.584-8.508 72.413-37.271 31.415-37.271 31.415z" fill="#b2b0fd"/><path d="m359.948 187.871s-.94 14.19-9.97 34.76c-9.13 20.81-26.53 48.13-59.6 73.86l-22.54 11.01s-46.86 65.49-130.45 70.81c-29.908 1.907-56.824-6.27-70.51-32.94-6.74-2.28-13.6-5.28-20.54-9.12-51.96-28.71-31.5-75.2 19.95-97.9-.66-6.73-1.21-16.42-.66-27.77 2.2-45.22 21.93-116.81 121.81-132.57 77.43-12.21 121.44 22.45 145.84 58.43l-3.67 25.51c29.97 25.6 24.235 20.7 30.34 25.92z" fill="#9290fd"/><g fill="#8989fd"><path d="m359.948 187.871s-.94 14.19-9.97 34.76c-16.17-24.18-39.47-42.62-39.47-42.62 16.4-3.05 32.55-.02 44.82 3.91z"/><path d="m174.118 229.761c-40.8-9.34-79.13-4.08-107.83 8.59-.66-6.73-1.21-16.42-.66-27.77 66.71-23.89 108.49 19.18 108.49 19.18z"/><path d="m197.018 312.291s-37.75 59.36-116.89 50.33c-5.86-5.19-10.13-11.17-13.25-17.25 71.84 24.33 130.14-33.08 130.14-33.08z"/></g><path d="m423.588 143.841c-24.89 50.66-4.19 96.39-3.78 97.29-.8-.5-98.17-61.57-110.01-102.95-1.211-4.239-1.65-8.636-.54-12.92 5.337-20.55 33.146-34.885 52.89-42.96 0-.01.01 0 .01 0 27.1-11.07 54.27-16.49 54.27-16.49-2.177 7.802-3.17 15.368-3.17 17.21-2.47 30.48 14.43 44.86 17.45 47.18.3.23.46.34.46.34-2.9 4.45-5.41 8.9-7.58 13.3z" fill="#9290fd"/><path d="m415.758 68.351c-1.712 6.721-2.5 13.296-2.5 14.67-18.85 6.39-68.85 24.93-97.69 50.33-35.856 31.546 28.803-45.72 30.04-46.52.971-.647 69.054-18.197 70.15-18.48z" fill="#8989fd"/><path d="m431.168 130.541c-2.9 4.45-5.41 8.9-7.58 13.3-19 1.34-61.9 4.48-90.75 7.51-38.01 4 44.07-25.22 44.07-25.22 58.143 4.398 53.518 3.899 54.26 4.41z" fill="#8989fd"/><path d="m154.302 131.001s12.091-104.696 139.129-129c0 0-8.736 52.015-42.103 77.058 0 0-51.634-9.102-97.026 51.942z" fill="#b2b0fd"/><path d="m310.51 180.012c71.919 16.184 127.555 128.366 115.484 69.347s-93.153-98.005-93.153-98.005c36.379-18.629 159.639-9.54 105.543-25.847s-122.816 7.84-122.816 7.84c46.673-62.057 176.032-66.143 89.711-74.809s-119.917 57.922-119.917 57.922-14.886 42.715 25.148 63.552z" fill="#b2b0fd"/><ellipse cx="146.411" cy="291.602" fill="#8080fd" rx="41.325" ry="30.055" transform="matrix(.635 -.772 .772 .635 -171.785 219.359)"/><ellipse cx="66.288" cy="280.015" fill="#8080fd" rx="31.088" ry="22.609" transform="matrix(.303 -.953 .953 .303 -220.661 258.499)"/></g><g fill="#4200dd"><path d="m438.961 123.591c-4.838-1.459-9.802-2.578-14.823-3.439-5.835-8.396-11.678-22.702-7.957-44.225 15.555-5.616 20.534-7.771 20.081-11.452-.417-3.387-4.96-5.336-30.783-7.929-44.766-4.494-82.525 10.953-108.403 40.132-12.496-8.551-26.361-14.799-41.296-18.606 30.945-25.963 39.274-73.657 39.623-75.741.231-1.372-.98-2.558-2.348-2.296-50.714 9.702-94.869 34.988-121.316 79.009-12.351 2.894-23.821 6.848-34.177 11.791 16.612-38.733 35.797-62.307 29.563-68.013-2.9-2.656-8.636-1.2-31.917 14.117-49.06 32.28-50.128 77.985-48.116 96.908-25.39 38.011-24.681 83.814-22.931 103.263-29.951 13.588-49.081 35.142-50.034 56.49-.54 12.082 4.442 29.593 31.242 44.4 6.559 3.629 13.319 6.656 20.104 9.004 8.357 15.793 26.141 33.57 63.841 33.57 11.072 0 24.859-1.569 38.639-5.047-12.261 22.576-35.616 60.686-66.654 88.996-.816.744-.875 2.01-.13 2.826.745.817 2.01.873 2.825.13 18.903-17.241 34.973-38.033 47.481-56.835 2.766.37 9.725 1.153 19.032 1.153 14.252 0 33.985-1.856 52.496-9.842-8.493 20.397-19.59 42.121-34.021 62.906-.93 1.34.055 3.141 1.641 3.141.633 0 1.256-.3 1.645-.86 27.458-39.55 46.997-88.715 57.086-136.602 12.933-11.947 19.739-21.361 20.107-21.875.643-.898.436-2.147-.462-2.79-.897-.643-2.147-.437-2.79.461-.116.162-11.87 16.407-33.582 33.073-19.982 15.339-52.749 34.193-95.369 36.905-31.417 2-53.64-7.255-66.156-27.519 29.906 8.694 60.574 4.443 88.649-9.038 23.584-11.325 38.062-25.446 38.667-26.042.787-.775.796-2.041.022-2.828-.775-.787-2.04-.797-2.828-.023-.144.142-14.693 14.314-37.711 25.343-21.129 10.124-53.962 19.603-90.384 7.268 0 0 0 0-.001 0-6.816-2.306-13.616-5.325-20.214-8.976-19.792-10.936-29.883-25.017-29.181-40.721.899-20.13 19.664-40.668 48.971-53.599 31.617-13.957 69.466-16.965 106.576-8.47 1.079.247 2.149-.426 2.396-1.503s-.427-2.149-1.503-2.396c-36.954-8.46-74.659-5.742-106.529 7.617-1.627-19.788-1.77-63.707 22.78-99.966 18.585-27.464 46.283-43.473 78.156-51.621-13.997 25.242-16.543 45.96-16.655 46.93-.234 2.025 2.375 3.059 3.592 1.423 23.038-30.982 47.659-43.24 64.256-48.068 17.513-5.094 30.03-3.224 30.778-3.104 15.806 3.53 30.431 9.825 43.513 18.71-7.255 8.749-10.658 15.391-10.878 15.827-.497.986-.102 2.187.884 2.685.983.496 2.187.103 2.687-.882.083-.164 8.509-16.558 27.202-31.672 17.2-13.907 46.906-29.563 90.731-25.162 18.623 1.87 25.028 3.399 26.861 4.441-8.668 7.305-84.37 22.499-117.971 67.175-1.183 1.573.395 3.743 2.261 3.089.682-.239 68.746-23.737 121.576-7.812 7.558 2.278 10.451 3.729 11.553 4.471-11.039 4.92-89.535 3.397-117.43 17.681-1.468.751-1.444 2.867.045 3.583.802.386 80.329 39.248 92.06 96.603 2.279 11.144 1.604 13.797 1.29 14.388-9.165-.876-57.015-75.041-114.436-86.099-1.09-.21-2.134.501-2.342 1.586-.209 1.085.501 2.133 1.585 2.342 15.852 3.053 30.983 11.14 44.738 21.154-5.601 20.031-21.474 57.346-65.72 91.782-.872.678-1.028 1.935-.35 2.807.679.873 1.936 1.027 2.807.35 12.985-10.107 23.578-20.468 32.219-30.59 11.175 27.287 25.507 87.388 7.458 198.2-.198 1.217.741 2.322 1.977 2.322.963 0 1.812-.698 1.972-1.679 18.635-114.419 2.924-175.538-8.519-202.307 18.694-22.939 27.487-44.326 31.583-58.328 18.306 13.968 33.987 30.993 45.396 43.387 12.608 13.696 19.153 20.892 23.479 18.677 3.052-1.562 3.264-6.656.781-18.794-2.221-10.861-6.765-21.025-12.589-30.332-3.573-19.492-4.118-49.001 13.123-79.764 19.493-1.62 25.006-2.942 25.402-6.51.29-2.609-2.059-4.88-14.926-8.759zm-194.688 211.489c-3.569 15.8-9.53 37.562-19.073 61.483-28.008 13.588-61.133 11.416-71.261 10.333 8.202-12.623 14.722-24.14 19.328-32.806 25.167-7.22 49.469-20.409 71.006-39.01zm-112.212-241.467c-16.711 8.895-30.598 20.7-41.365 35.139-1.117-20.227 3.144-59.803 46.712-88.47 20.177-13.275 25.584-14.845 26.981-14.49 1.342 4.744-19.154 35.626-32.328 67.821zm118.725-16.654c-3.286-.421-15.235-1.43-31.502 3.258-16.013 4.615-39.185 15.838-61.447 43.006 2.333-9.881 7.866-27.712 20.175-46.682 16.782-25.865 49.939-59.147 112.874-71.998-2.389 11.07-12.713 51.346-40.1 72.416zm70.517 52.484c24.047-27.632 64.766-42.684 90.58-51.968-2.831 19.246 1.678 32.941 6.984 41.873-39.667-5.282-81.83 5.434-97.564 10.095zm88.882 81.566c-17.812-24.281-46.274-45.522-72.746-59.544 20.754-8.36 62.959-10.415 86.272-12.22-14.319 26.838-15.748 52.583-13.526 71.764z"/><path d="m148.068 253.598c-9.749 2.525-19.128 8.788-26.409 17.635-15.18 18.447-16.427 42.591-2.779 53.823 4.696 3.864 10.551 5.704 16.832 5.704 22.75 0 46.194-23.375 47.673-48.097 1.278-21.336-14.706-34.405-35.317-29.065zm31.325 28.825c-.552 9.216-4.571 18.806-11.319 27.006-13.778 16.743-34.707 22.368-46.651 12.538-11.945-9.83-10.453-31.449 3.326-48.193 9.876-12.002 22.426-17.374 32.33-17.374 13.429.001 23.276 9.938 22.314 26.023z"/><path d="m42.832 272.571c-2.639 8.314-2.755 16.906-.329 24.192 5.188 15.577 20.393 20.346 33.56 10.65 6.184-4.554 11.043-11.641 13.682-19.955 5.519-17.39-.514-34.876-13.448-38.981-12.937-4.105-27.947 6.705-33.465 24.094zm43.1 13.678c-2.385 7.515-6.732 13.888-12.241 17.944-10.995 8.096-23.074 4.272-27.393-8.693-7.236-21.728 11.541-48.683 28.789-43.21 10.831 3.438 15.696 18.672 10.845 33.959z"/></g></svg>